<?xml version="1.0" encoding="utf-8"?>
<!-- Generator: Adobe Illustrator 24.2.3, SVG Export Plug-In . SVG Version: 6.00 Build 0)  -->
<svg version="1.1" id="Layer_1" xmlns="http://www.w3.org/2000/svg" xmlns:xlink="http://www.w3.org/1999/xlink" x="0px" y="0px"
	 viewBox="0 0 200 200" style="enable-background:new 0 0 200 200;" xml:space="preserve">
<style type="text/css">
	.st0{fill:#E6E6E6;}
	.st1{fill:#FDCA14;}
	.st2{fill:#C4A400;}
	.st3{fill:#FFFFFF;}
	.st4{fill:#FAFBFB;}
	.st5{fill:#FF9600;}
	.st6{fill:#E2817A;}
	.st7{fill:#FCA89F;}
</style>
<g>
	<path class="st0" d="M95.4,187.5c37,0,66.9-5.4,66.9-12.1c0-6.7-30-12.1-66.9-12.1c-37,0-66.9,5.4-66.9,12.1
		C28.5,182.1,58.5,187.5,95.4,187.5z"/>
	<path class="st1" d="M164.3,118.4c-0.7,10.5-8,15.5-14.2,17.9c-4,1.5-8.1,2.3-12.3,2.6l-1-2.5l-0.1-0.2l10.8-4.2l0.3,0.2
		c1.5,0.8,3.3,1.1,5,0.9l-0.1-0.1c-0.3-0.1-0.5-0.3-0.8-0.5l-0.1-0.1c-1.2-0.9-2.1-2.1-2.7-3.4c-0.6-1.3-0.8-2.8-0.6-4.3
		c0.4-4.4,3.6-7.1,6.2-8.4c0.3-0.1,0.6-0.1,0.9-0.2C158.7,115.9,161.8,116.7,164.3,118.4z"/>
	<path d="M88.2,157.2v0.2h-0.1L88.2,157.2L88.2,157.2z"/>
	<path d="M126,124.9l0.3-0.1L126,124.9z"/>
	<path d="M170.8,122.4c-1-2.8-3-5.1-5.7-6.5c-4.9-2.8-11.7-3.1-16.2,0.8c-3.2,2.7-5.3,7.8-4,12c-2.8,2.2-7.7,4-9.3,4.5l-3.9-9.6
		c13.3-3.8,25.1-12,28.2-26.5c1.4-6.8,1.3-13.9-0.5-20.6l-0.1-0.3c-0.6-2.3-1.3-4.6-2.2-6.8c-2.1-5.3-4.8-10.4-8.1-15
		c0.3-7.8-0.5-15.6-2.1-23.2c-1.3-5.7-3.2-11.2-5.7-16.5c-0.4-0.9-1.2-1.6-2.1-1.9c-0.9-0.3-1.9-0.3-2.8,0.1
		c-7.2,3.3-13.9,7.7-19.8,13.1c-2-1-4-1.8-6.1-2.4c-11.5-3.7-24.1-2.9-35,2.4c-5.9-5.3-12.5-9.7-19.7-13c-0.9-0.4-1.9-0.4-2.8-0.1
		c-0.9,0.3-1.7,1-2.1,1.9c-5.6,12-8.3,25.2-7.9,38.4h0.1c-3.1,4.1-5.6,8.5-7.6,13.2c-1.2,2.8-2.2,5.6-2.9,8.6c0,0.1,0,0.2-0.1,0.3
		c-1.8,6.9-2,14.2-0.6,21.2c3.1,14.6,14.3,23.3,27.7,27.4l-7.4,18.2c-1.8,0.8-7.7,3.8-10.1,9.2c-1.3,2.9-1.5,7.4-0.5,12.1
		c0.3,1.7,1.6,7,4.2,8.8c0,0.1,0,0.2-0.1,0.4c-0.2,1.8,0.1,3.6,1,5.2c0.9,1.6,2.3,2.8,3.9,3.5c1.9,0.9,3.8,1.4,5.9,1.7
		c2,0.3,4,0.3,6,0c2.8-0.3,5.5-1.4,7.8-3.2c0.9,1.2,2.1,2.1,3.4,2.7c3.8,1.8,8.6,2.3,12.4,0.1c1.2-0.8,2.2-1.9,2.8-3.2h13.6
		c1.4,3.3,4.9,4.5,8.3,4.5c2.5,0,5-0.7,7.3-1.9c1-0.6,1.9-1.4,2.7-2.4c3.8,3.3,9.2,4,14,3.4c2-0.2,4-0.8,5.9-1.7
		c1.7-0.7,3-2,3.9-3.5s1.2-3.4,1-5.2c0-0.1,0-0.2-0.1-0.4c2.6-1.8,3.8-7.1,4.2-8.8c0.9-4.7,0.8-9.2-0.5-12.1
		c-0.6-1.4-1.4-2.6-2.5-3.8l0.5-0.1c0.8-0.1,1.9-0.3,2.6-0.5c5.3-1.1,10.7-2.9,14.9-6.5c1.9-1.6,3.5-3.5,4.7-5.7
		c1.1-2.2,1.8-4.6,2-7.1c0-0.2,0-0.3,0-0.5C171.5,125.4,171.2,123.8,170.8,122.4z M41.2,108.9c-3-3.9-5.2-8.4-6.2-13.3
		c-0.1-0.3-0.1-0.6-0.2-0.9c-0.2-0.9-0.3-1.7-0.4-2.6c0-0.3-0.1-0.6-0.1-0.9c-0.1-0.9-0.2-2-0.2-3c0-0.3,0-0.6,0-0.9
		c0-1.2,0-2.4,0.1-3.7c0.1-2.2,0.4-4.4,0.9-6.6c0-0.1,0-0.2,0-0.3c1.9-8.5,5.2-16.6,9.9-24c0.2-0.3,0.3-0.5,0.5-0.8
		c1.4-2.2,2.8-4.3,4.3-6.3c-1.5,1.3-3,2.8-4.3,4.3c0-11.9,2.6-23.7,7.7-34.5c0.1-0.3,0.4-0.5,0.7-0.6c0.3-0.1,0.6-0.1,0.9,0
		c6.7,3.1,12.9,7.1,18.4,11.9c-1.4,0.8-2.8,1.7-4.1,2.7l0.6-0.1c8.8-4.1,18.4-6.1,28.1-5.9c8.4,0.3,16.7,2.3,24.4,5.8
		c0.3,0.1,0.6,0.2,0.8,0.2c-1.3-0.9-2.6-1.8-4-2.6c3.1-2.7,6.3-5.1,9.8-7.3c2.8-1.7,5.7-3.3,8.7-4.7c0.3-0.1,0.6-0.1,0.9,0
		c0.3,0.1,0.5,0.3,0.7,0.6c5.2,11.1,7.8,23.2,7.7,35.4c-1.5-1.9-3.2-3.7-5-5.4c5.1,7.8,9.8,15.8,12.9,24.6c0.9,2.5,1.6,5.1,2.1,7.7
		c0,0.1,0,0.2,0.1,0.3c0.1,0.1,0.1,0.4,0.1,0.6c0,0.2,0.1,0.3,0.1,0.5c1,5.2,1.1,10.6,0.1,15.9c-0.1,0.3-0.1,0.6-0.2,0.9
		c0,0,0,0,0,0.1c-0.6,2.5-1.4,5-2.5,7.3c-5.5,11-16.8,17.3-28.5,20.4l-1.4,0.4c-0.7,0.4-1.5,0.9-2.4,1.3c-7.9,4.1-16.7,6.3-25.7,6.3
		h-0.2c-8.7,0-17.3-2-25.1-5.9c-0.7-0.3-1.3-0.7-2-1c-0.9-0.2-1.9-0.5-2.8-0.7C56.6,121.6,47.3,116.9,41.2,108.9z M146.9,152
		c2.3,5.1-0.2,14.8-2.3,17.3c-0.2-0.4-0.4-0.7-0.7-1c-0.1-0.1-0.1-0.1-0.2-0.2l-0.3-0.4c-0.4-0.4-0.8-0.7-1.2-0.9
		c-0.3-0.2-0.5-0.3-0.8-0.4c0.3,0.7,0.6,1.4,0.9,2.1c1.1,3.3,1.1,6-0.5,7.9c-0.1,0.1-0.2,0.2-0.2,0.3c-0.2,0.2-0.4,0.4-0.7,0.6
		c0-0.2-0.1-0.4-0.1-0.5c0-0.1,0-0.2-0.1-0.3c-0.3-1.2-0.8-2.3-1.5-3.3c-0.4-0.5-0.9-1-1.5-1.3c0.4,0.4,0.8,1,0.9,1.6
		c0.3,1,0.4,2,0.3,3c0,0.1,0,0.2,0,0.3c0,0.6-0.1,1.1-0.2,1.7c-0.4,0.2-0.8,0.3-1.3,0.4c-1.1,0.3-2.1,0.5-3.2,0.6
		c-0.2-0.5-0.4-1.1-0.6-1.6c-0.2-0.4-0.4-0.9-0.7-1.3l-0.2-0.3c-0.3-0.4-0.7-0.8-1.2-1c0.2,0.3,0.4,0.6,0.5,0.9l0.1,0.3l0.1,0.2
		c0.2,1,0.2,2,0.2,3c-3.6,0.3-7.1-0.6-10.1-2.5c0.9-1.6,1.7-3.2,2.4-4.9l0.1-0.3c0.3-0.7,0.5-1.4,0.8-2.1c0.7-1.9,1.3-3.8,1.8-5.6
		c0-0.1,0-0.2,0.1-0.3c0.4-1.3,0.7-2.5,1-3.8c0.9-3.3,1.5-6.6,2.1-9.9c0.6-3.3,0.8-6.7,0.8-10.1c-1.3,3.9-2.4,8.1-3.8,12
		c-0.2,0.6-0.6,1.8-0.7,2.4c-0.9,3.5-1.9,7.1-2.9,10.6l-0.1,0.3c-0.8,2.5-1.7,4.9-2.8,7.3l-0.3,0.6c-0.9,2-2.1,4.1-3.8,5.4
		c-0.3,0.2-0.5,0.3-0.8,0.5l-0.4,0.2c0.1-1,0-2-0.2-2.9v-0.2l-0.1-0.2c-0.2-0.5-0.4-1-0.8-1.3c0.2,0.5,0.3,1,0.3,1.5
		c0,0.1,0,0.2,0,0.3c-0.1,1.3-0.5,2.5-1.1,3.6c-1.3,0.4-2.7,0.5-4.1,0.4c0.1-1.1,0.1-2.2-0.1-3.3c0-0.1,0-0.2,0-0.3c0,0,0-0.1,0-0.1
		c-0.1-0.6-0.4-1.1-0.7-1.5c0.2,0.5,0.2,1,0.1,1.5c0,0.1,0,0.2,0,0.2c-0.2,1-0.6,2-1.1,2.9h-0.1c-0.6-0.2-1.1-0.5-1.6-0.9
		c-0.5-0.4-0.8-0.9-1-1.5c-0.1-0.2-0.2-0.5-0.2-0.7c0-0.2-0.1-0.3-0.1-0.5l-0.1-0.3c-0.8-4.3-1.2-8.6-1.2-12.9c0-0.1,0-0.2,0-0.3
		c0-0.3,0-0.7,0-1c0-1.5-0.1-3-0.4-4.5c0-0.1,0-0.2,0-0.2l-0.1-0.3H103l-0.2,0.3c0,0.1-0.1,0.2-0.1,0.3c-1.1,2.3-1.6,4.9-1.5,7.5
		v0.8c0,0.4,0,0.8,0,1.2v0.3c0,3.1,0.3,6.3,0.8,9.4H89.6c0.5-3.2,0.7-6.4,0.7-9.6c0-0.1,0-0.1,0-0.2v-0.3c0-0.4,0-0.7,0-1.1
		c0-0.1,0-0.2,0-0.3c-0.1-2.8-0.3-5.6-1.8-8.2c0,0.1,0,0.1-0.1,0.2v0.3h-0.1c-0.3,1.5-0.5,3-0.4,4.6c0,0.1,0,0.3,0,0.4
		c0,0.1,0,0.2,0,0.3c0.1,4.6-0.4,9.2-1.3,13.8l-0.1,0.3c0,0.1,0,0.1,0,0.2c0,0.2-0.1,0.5-0.2,0.7c-0.2,0.6-0.6,1.2-1,1.6
		c-0.5,0.4-1,0.8-1.7,0.9c-0.5-0.9-0.9-1.9-1.1-3c0-0.1,0-0.2,0-0.3c-0.1-0.5-0.1-1.1,0.1-1.6c-0.3,0.4-0.6,1-0.7,1.5
		c0,0.1,0,0.2-0.1,0.2c-0.2,1.2-0.3,2.3-0.1,3.5c-1.3,0.1-2.7,0-4-0.3c-0.9-1.4-1.3-3-1.3-4.6c0-0.1,0-0.2,0-0.3
		c0.1-0.3,0.1-0.5,0.2-0.8c-0.2,0.2-0.3,0.4-0.5,0.7c0,0.1-0.1,0.1-0.1,0.2c-0.5,1.3-0.7,2.7-0.5,4l-0.5-0.2c-2.1-0.9-4-4-5.7-7.8
		l-0.2-0.6c-0.6-1.5-1.2-3.1-1.7-4.7l-0.1-0.3c-1.5-4.5-2.6-9-3.2-11.4c-0.3-1.2-0.9-3.6-1.3-4.8c-0.8-2.8-1.8-6.9-2.8-9.7
		c0,1.3,0,2.5,0.1,3.8c0.2,2.1,0.3,4.2,0.6,6.3c0.3,3.4,0.9,6.7,1.8,10c0.3,0.9,0.6,2.1,0.9,3.3l0.1,0.3c0.9,3.1,1.9,6.1,3.1,9.1
		c0,0.1,0.1,0.2,0.1,0.2c0.6,1.5,1.3,2.9,2.1,4.2c-2.9,1.8-6.4,2.6-9.8,2.4c-0.1-1-0.1-2.1,0.2-3.1c0-0.1,0-0.2,0.1-0.3
		c0.1-0.4,0.3-0.7,0.6-1c-0.5,0.3-0.9,0.7-1.2,1.1c-0.1,0.1-0.1,0.2-0.2,0.3c-0.5,0.9-1,1.8-1.3,2.8c-1.1-0.1-2.2-0.4-3.2-0.6
		c-0.4-0.1-0.9-0.2-1.3-0.4c0-0.2-0.1-0.3-0.1-0.5c-0.1-0.6-0.1-1.1-0.2-1.7v-0.3c-0.1-0.7,0-1.5,0.2-2.2c0.2-0.7,0.6-1.4,1-1.9
		c-1.3,0.8-2.3,2.2-2.7,3.7c0,0.1-0.1,0.2-0.1,0.2c-0.2,0.5-0.3,0.9-0.4,1.4c-0.8-0.6-1.4-1.4-1.8-2.4c0-0.1-0.1-0.2-0.1-0.3
		c0-0.1,0-0.2-0.1-0.2c-0.4-2.6,0-5.2,1.2-7.5l0.2-0.4l-0.2,0.1c-0.7,0.3-1.3,0.7-1.8,1.3l-0.2,0.2c-0.4,0.4-0.7,0.9-1,1.4
		c-2.2-2.6-4.6-12.2-2.3-17.3c0.8-1.8,2.1-3.4,3.6-4.6l0.4-0.4c1.6-1.3,3.3-2.3,5.2-3.1l0.5-0.2l7.9-19.5l1.6,0.4
		c0.7,0.2,1.4,0.3,2.1,0.4l0.7,0.1c0,0.3,0,0.6,0,1.1l0.3,0.2c8.9,5.2,19.1,7.9,29.4,7.9h0.2c10.3,0,20.5-2.8,29.4-8l0.3-0.2
		c0-0.3,0-0.8,0.1-1.3l0.3-0.1c0.9-0.2,1.9-0.4,2.8-0.6l7.7,19.1l0.2,0.5l0.5,0.2c1.3,0.6,2.6,1.2,3.8,2c0.3,0.2,0.6,0.4,0.9,0.6
		C144.3,148,145.8,149.8,146.9,152z M167.7,132c-0.1,0.3-0.2,0.5-0.4,0.8c-1.9,3.5-4.8,6.3-8.4,8.1c-3.4,1.7-7.1,2.9-10.8,3.5
		c-1.2,0.2-2.5,0.4-3.8,0.6c-1.6-1.3-3.4-2.4-5.3-3.2v-0.1l-0.1-0.3l-0.9-2.3l-0.1-0.2l-1-2.5l-0.1-0.2l-0.3-0.7
		c3.4-1.1,6.7-2.6,9.6-4.6c0.4,0.4,0.9,0.8,1.4,1.1l0.3,0.2c1.5,0.8,3.3,1.1,5,0.9l-0.1-0.1c-0.3-0.1-0.5-0.3-0.8-0.5l-0.1-0.1
		c-1.2-0.5-2.4-1.1-3.4-1.9c-2.6-2-2.2-5.7-0.9-8.5c0.6-1.4,1.6-2.7,2.8-3.7c1.2-1,2.7-1.7,4.2-2h0.1c0.3-0.1,0.6-0.1,0.9-0.2
		c3.1-0.3,6.2,0.5,8.8,2.2l0.2,0.2c1.2,0.8,2.1,1.8,2.9,3c0.7,1.2,1.1,2.5,1.2,3.9C168.9,127.7,168.5,130,167.7,132z"/>
	<path class="st2" d="M45.9,158c0.1,3.4,0.7,6.7,1.8,9.9c-0.4,0.4-0.7,0.9-1,1.4c-2.2-2.6-4.6-12.2-2.3-17.3
		c0.8-1.8,2.1-3.4,3.6-4.6C46.5,150.7,45.8,154.4,45.9,158z"/>
	<path class="st2" d="M151.8,132.4c-1.2-0.5-2.4-1.1-3.4-1.9c-2.6-2-2.2-5.7-0.9-8.5c0.6-1.4,1.6-2.7,2.9-3.7c1.2-1,2.7-1.7,4.2-2
		h0.1c-2.6,1.3-5.8,4-6.2,8.4c-0.2,1.5,0.1,2.9,0.6,4.3C149.7,130.4,150.6,131.5,151.8,132.4z"/>
	<path class="st2" d="M147.5,132l-10.8,4.2l-0.3-0.7c3.4-1.1,6.7-2.6,9.6-4.6C146.5,131.3,147,131.7,147.5,132z"/>
	<path class="st0" d="M167.6,132c-0.1,0.3-0.2,0.5-0.4,0.8c-1.9,3.5-4.8,6.3-8.4,8.1c-3.4,1.7-7.1,2.9-10.8,3.5
		c-1.2,0.2-2.5,0.4-3.8,0.6c-1.6-1.3-3.4-2.4-5.3-3.2v-0.1l-0.1-0.3c3.2,0.3,10.5,0.8,15.2-0.7C159.4,139.3,164.1,136.3,167.6,132z"
		/>
	<path class="st3" d="M167.6,132c-3.5,4.2-8.2,7.3-13.5,8.7c-4.7,1.5-12,1-15.2,0.7l-0.9-2.3l-0.1-0.2c4.2-0.3,8.3-1.2,12.3-2.6
		c6.1-2.4,13.5-7.4,14.2-17.9l0.2,0.2c1.2,0.8,2.1,1.8,2.9,3c0.7,1.2,1.1,2.5,1.2,3.9C168.8,127.7,168.5,130,167.6,132z"/>
	<path d="M88.2,157.2v0.2h-0.1L88.2,157.2L88.2,157.2z"/>
	<path class="st3" d="M124.3,124.2c-0.7,0.4-1.5,0.9-2.4,1.3c-7.9,4.1-16.7,6.3-25.7,6.3h-0.2c-8.7,0-17.3-2-25.1-5.9
		c-0.7-0.3-1.3-0.7-2-1c0.2,0.1,6.8,2.2,21.3,2.7H91h0.8h1H94h1.6C113.8,127.6,124,124.3,124.3,124.2z"/>
	<path class="st0" d="M156.7,96.1C156.7,96.1,156.7,96.1,156.7,96.1c-0.6,2.6-1.4,5-2.5,7.4c-5.5,11-16.8,17.2-28.5,20.4l-1.4,0.4
		c-0.3,0.1-10.5,3.4-28.7,3.4h-1.6h-2.3H91h-0.6C75.9,127.2,69.3,125,69,125c-0.9-0.2-1.9-0.4-2.8-0.7c-9.6-2.6-18.8-7.3-25-15.2
		c-3-3.9-5.2-8.4-6.2-13.3v-0.1c2.2,4,6.7,11.2,13.7,16.1c10.4,7.3,32.3,10,47.9,10c16.1,0,37.9-3.5,46.5-10
		C148.7,107.6,153.3,102.2,156.7,96.1z"/>
	<path class="st1" d="M87.8,162.4v0.3c-2.4-0.9-5-1.4-7.5-1.6c-2.4-0.1-4.8,0.3-7,1.2c-2.2,0.9-4.2,2.3-5.8,4.1
		c0-0.1-0.1-0.2-0.1-0.3c-1.5-4.5-2.6-9-3.2-11.4c-0.3-1.2-0.9-3.6-1.3-4.8c-0.8-2.8-1.8-6.9-2.8-9.7c-0.1,1.1,0.1,2.6,0.1,3.8
		c0.2,2.1,0.3,4.2,0.6,6.3c0.3,3.4,0.9,6.7,1.8,10c0.3,0.9,0.6,2,0.9,3.3l0.1,0.3c-1.6-0.2-9-0.9-13.8,3.1c0.1-0.1,0.1-0.3,0.2-0.4
		l-0.2,0.1c-0.7,0.3-1.3,0.7-1.8,1.3l-0.2,0.2c-1-3.2-1.6-6.6-1.8-9.9c-0.1-3.7,0.6-7.3,2.1-10.6l0.4-0.4c1.6-1.3,3.3-2.3,5.2-3.1
		l0.5-0.2l7.9-19.5l1.6,0.4c0.7,0.2,1.4,0.3,2.1,0.4l0.7,0.1c0,0.3,0,0.6,0,1.1c0.2,4.9,1,9.8,2.4,14.6c1.1,4.1,3.1,8,5.9,11.2
		c1.5,1.7,3.3,3,5.3,3.9c2,0.9,4.2,1.4,6.4,1.4h1.8c-0.3,1.5-0.4,3-0.4,4.6C87.7,162.2,87.8,162.3,87.8,162.4z"/>
	<path class="st1" d="M89.4,176.6c0.5-3.2,0.7-6.4,0.7-9.6v-0.2c1.9,0.6,3.9,1,5.9,1h0.2c1.6-0.1,3.2-0.3,4.8-0.6
		c0,3.2,0.3,6.3,0.8,9.4L89.4,176.6z"/>
	<path class="st0" d="M101,165.7c0,0.4,0,0.8,0,1.2c0,0.1,0,0.2,0,0.3c-1.6,0.3-3.2,0.5-4.8,0.6h-0.2c-2,0-4-0.4-5.9-1
		c0-0.1,0-0.2,0-0.3c0-0.4,0-0.7,0-1.1c1.8-0.7,3.6-1,5.5-1.1c1.9-0.1,3.7,0.2,5.4,0.9L101,165.7z"/>
	<path class="st3" d="M125.9,126.2c-0.1,3.4-1,21-11.5,28.6c0,0-3.4,2.6-11,2.6H103c0-0.1,0-0.2,0-0.3L103,157h-0.1l-0.2,0.3
		c0,0.1-0.1,0.2-0.1,0.3c-1.1,2.3-1.6,4.9-1.5,7.5c0,0.1,0,0.2,0,0.3c-1.7-0.6-3.6-0.9-5.4-0.9c-1.9,0-3.8,0.4-5.5,1.1v-0.3
		c-0.1-2.8-0.3-5.6-1.8-8.2h-0.1l-0.1,0.2l-0.1,0.2h-1.8c-2.2,0-4.4-0.5-6.4-1.4s-3.8-2.3-5.3-3.9c-2.8-3.3-4.8-7.1-5.9-11.2
		c-1.4-4.7-2.2-9.6-2.4-14.6l0.3,0.2c8.9,5.2,19.1,7.9,29.4,7.9h0.2c10.3,0,20.5-2.8,29.4-8L125.9,126.2z"/>
	<path class="st0" d="M108.7,177.2c-0.2,1-0.6,2-1.1,2.9h-0.1c-0.6-0.2-1.1-0.5-1.6-0.9c-0.5-0.4-0.8-0.9-1-1.5
		c-0.1-0.2-0.1-0.5-0.2-0.7c0-0.2-0.1-0.3-0.1-0.5C105.9,176.9,107.3,177.1,108.7,177.2z"/>
	<path class="st0" d="M114.8,176.5L114.8,176.5c-0.1,1.3-0.5,2.5-1.1,3.6c-1.3,0.4-2.7,0.5-4.1,0.4c0.1-1.1,0-2.2-0.1-3.3h0.7
		c0.7,0,1.4-0.1,2.1-0.2C113.1,177,114,176.8,114.8,176.5z"/>
	<path class="st0" d="M120.7,173.3c-0.9,2-2.1,4.1-3.8,5.4c-0.3,0.2-0.6,0.3-0.8,0.5l-0.4,0.2c0.1-1,0-1.9-0.2-2.9v-0.2
		C117.3,175.7,119.1,174.6,120.7,173.3z"/>
	<path class="st2" d="M144.5,169.4c-0.2-0.4-0.4-0.7-0.7-1c2.2-4.1,2.9-8.8,1.9-13.4c-0.5-3-1.6-5.9-3.4-8.3c2,1.4,3.5,3.2,4.6,5.4
		C149.1,157.1,146.7,166.8,144.5,169.4z"/>
	<path class="st1" d="M143.8,168.4l-0.2-0.2c-0.1-0.1-0.2-0.2-0.3-0.4c-0.4-0.4-0.8-0.7-1.2-0.9c-0.3-0.2-0.5-0.3-0.8-0.4
		c-2.5-1.7-5.5-2.7-8.5-2.9c-1.9,0-3.7,0.2-5.6,0.7l0.1-0.3c0.4-1.3,0.7-2.5,1-3.8c0.9-3.3,1.5-6.6,2.1-9.9
		c0.6-3.3,0.8-6.7,0.8-10.1c-1.3,3.9-2.4,8.1-3.8,12c-0.2,0.6-0.6,1.8-0.7,2.4c-0.9,3.5-1.9,7.1-3,10.6c0,0.1,0,0.2-0.1,0.3
		c-2.9-2.2-6.2-3.7-9.8-4.4c-4.2-0.6-8.5,1.3-10.5,2.4v-0.3c0-0.3,0-0.7,0-1c0-1.5-0.1-3-0.4-4.5h0.4c7.6,0,10.9-2.6,11-2.6
		c10.5-7.7,11.4-25.2,11.5-28.6v-0.1c0-0.3,0-0.8,0.1-1.3l0.3-0.1c0.9-0.2,1.9-0.4,2.8-0.6l7.7,19.1l0.2,0.5l0.5,0.2
		c1.3,0.6,2.6,1.2,3.8,2c0.3,0.2,0.6,0.4,0.9,0.6c1.8,2.5,2.9,5.3,3.4,8.3C146.6,159.6,146,164.3,143.8,168.4z"/>
	<path class="st4" d="M123.7,165.4c-0.8,2.5-1.7,4.9-2.8,7.3c-0.1,0.2-0.2,0.4-0.3,0.6c-1.5,1.4-3.3,2.4-5.3,3c0-0.1,0-0.2-0.1-0.2
		c-0.2-0.5-0.4-0.9-0.8-1.3c0.2,0.5,0.3,1,0.3,1.5c0,0.1,0,0.2,0,0.3c-0.8,0.2-1.7,0.5-2.6,0.6c-0.7,0.1-1.4,0.2-2.1,0.2h-0.7
		c0-0.1,0-0.2,0-0.3c0,0,0-0.1,0-0.1c-0.1-0.6-0.4-1.1-0.7-1.5c0.2,0.5,0.2,1,0.1,1.5c0,0.1,0,0.2,0,0.3c-1.4-0.1-2.7-0.4-4.1-0.7
		l-0.1-0.3c-0.8-4.3-1.2-8.6-1.2-12.9c2-1.1,6.3-3,10.5-2.4C117.5,161.7,120.8,163.2,123.7,165.4z"/>
	<path class="st0" d="M138.8,176.8c0,0.6-0.1,1.1-0.2,1.7c-0.4,0.2-0.8,0.3-1.3,0.4c-1.1,0.3-2.1,0.5-3.2,0.6
		c-0.2-0.6-0.4-1.1-0.6-1.6c-0.2-0.4-0.4-0.9-0.7-1.3c0.9,0.2,1.7,0.3,2.6,0.3C136.8,176.8,137.9,176.8,138.8,176.8z"/>
	<path class="st0" d="M132.2,179.7c-3.6,0.3-7.1-0.6-10.1-2.5c0.9-1.6,1.7-3.2,2.4-4.9c2.1,2,4.7,3.4,7.5,4.2c0,0.1,0,0.1,0.1,0.2
		C132.3,177.6,132.3,178.6,132.2,179.7z"/>
	<path class="st0" d="M141.4,176.7c-0.2,0.2-0.4,0.4-0.7,0.6c0-0.2-0.1-0.4-0.1-0.6L141.4,176.7z"/>
	<path class="st3" d="M141.6,176.4c-0.1,0.1-0.2,0.2-0.2,0.3h-0.8c0-0.1,0-0.2-0.1-0.3c-0.3-1.2-0.8-2.3-1.5-3.3
		c-0.4-0.5-0.9-1-1.5-1.3c0.4,0.4,0.8,1,0.9,1.6c0.3,1,0.4,2,0.3,3c0,0.1,0,0.2,0,0.3c-0.9,0-2,0-3.4,0c-0.9,0-1.7-0.1-2.6-0.3
		c-0.1-0.1-0.1-0.2-0.2-0.3c-0.3-0.4-0.7-0.8-1.2-1c0.2,0.3,0.4,0.6,0.5,0.9c0,0.1,0.1,0.2,0.1,0.3c-2.8-0.7-5.4-2.2-7.5-4.2
		l0.1-0.3c0.3-0.7,0.5-1.4,0.8-2.1c0.7-1.9,1.3-3.8,1.8-5.6c1.8-0.5,3.7-0.7,5.6-0.7c3.1,0.1,6,1.1,8.5,2.9c0.3,0.7,0.6,1.4,0.9,2.1
		C143.2,171.8,143.2,174.6,141.6,176.4z"/>
	<path class="st0" d="M86.6,176.8c0,0.1,0,0.2,0,0.2c0,0.2-0.1,0.5-0.2,0.7c-0.2,0.6-0.6,1.2-1.1,1.6c-0.5,0.4-1,0.8-1.7,1
		c-0.5-0.9-0.9-1.9-1.1-3c0.4,0,0.7,0,1,0C84.6,177.3,85.6,177.1,86.6,176.8z"/>
	<path class="st0" d="M81.7,180.7c-1.3,0.1-2.7,0-4-0.3c-0.9-1.4-1.3-3-1.3-4.6c1.7,0.6,3.5,1.1,5.4,1.4
		C81.6,178.4,81.5,179.5,81.7,180.7z"/>
	<path class="st0" d="M75.6,179.7l-0.5-0.2c-2.1-0.9-4-4-5.7-7.8c2,1.7,4.2,3.1,6.7,4C75.6,176.9,75.4,178.3,75.6,179.7z"/>
	<path class="st4" d="M86.7,176.4c0,0.1,0,0.2-0.1,0.3c-1,0.4-2,0.6-3.1,0.6c-0.3,0-0.6,0-1,0c0-0.1,0-0.2,0-0.3
		c-0.1-0.5-0.1-1.1,0.1-1.6c-0.4,0.4-0.6,1-0.7,1.5l-0.1,0.2c-1.8-0.3-3.6-0.8-5.4-1.4c0-0.1,0-0.2,0-0.3c0-0.3,0.1-0.5,0.2-0.8
		c-0.2,0.2-0.3,0.4-0.5,0.7l-0.1,0.2c-2.5-0.9-4.7-2.3-6.7-4l-0.2-0.6c-0.6-1.5-1.2-3.1-1.7-4.7c1.6-1.8,3.6-3.2,5.8-4.1
		c2.2-0.9,4.6-1.3,7-1.2c2.6,0.2,5.1,0.8,7.5,1.6C87.9,167.3,87.6,171.9,86.7,176.4z"/>
	<path class="st0" d="M68.8,177.3c-2.9,1.8-6.4,2.6-9.8,2.3c-0.1-1-0.1-2.1,0.2-3.1c2.8-0.5,5.3-1.7,7.5-3.4
		C67.3,174.5,68,176,68.8,177.3z"/>
	<path class="st0" d="M58.4,176.7c-0.5,0.9-1,1.8-1.3,2.8c-1.1-0.1-2.2-0.4-3.2-0.6c-0.4-0.1-0.8-0.2-1.3-0.4c0-0.2-0.1-0.3-0.1-0.5
		c-0.1-0.6-0.1-1.1-0.2-1.7c1,0.2,2.1,0.4,3.1,0.5c0.3,0,0.7,0,1,0C57.1,176.7,57.8,176.7,58.4,176.7z"/>
	<path class="st0" d="M50.8,175.8c-0.2,0.5-0.3,0.9-0.4,1.4c-0.8-0.6-1.5-1.4-1.8-2.4C49.3,175.3,50.1,175.6,50.8,175.8z"/>
	<path class="st4" d="M59.2,176.3c0.1-0.4,0.3-0.7,0.5-1c-0.5,0.3-0.9,0.7-1.2,1.1c-0.1,0.1-0.1,0.2-0.2,0.3
		c-0.6,0.1-1.2,0.1-1.8,0.1c-0.3,0-0.7,0-1,0c-1.1-0.1-2.1-0.2-3.1-0.5v-0.3c-0.1-0.7,0-1.5,0.2-2.2c0.2-0.7,0.6-1.4,1-1.9
		c-1.3,0.8-2.3,2.2-2.7,3.7l-0.1,0.2c-0.8-0.3-1.5-0.6-2.2-0.9c0-0.1-0.1-0.2-0.1-0.3c0-0.1,0-0.2-0.1-0.2c-0.4-2.6,0-5.2,1.2-7.5
		c4.7-4,12.2-3.3,13.8-3.1c0.9,3.1,1.9,6.1,3.1,9.1c0,0.1,0.1,0.2,0.1,0.2c-2.2,1.7-4.8,2.9-7.5,3.4
		C59.2,176.4,59.2,176.3,59.2,176.3z"/>
	<path class="st5" d="M91.8,42.1c0.1,0.4,0.2,0.8,0.2,1.1c0-0.3-0.1-0.5-0.2-0.8C91.8,42.2,91.8,42.2,91.8,42.1z M91.6,41.1
		c0.1,0.3,0.2,0.7,0.2,1c0-0.1,0-0.2-0.1-0.3C91.7,41.7,91.6,41.3,91.6,41.1z"/>
	<path class="st5" d="M104.3,26.8h0.9H104.3z M95.1,26.7h-0.2h-0.9h-1l-2,0.1c4.1-0.2,8.6-0.3,13.1-0.1c-1.5-0.1-3-0.1-4.5-0.1
		S96.5,26.7,95.1,26.7z"/>
	<path class="st1" d="M156.5,77.9c-0.5-2.6-1.3-5.2-2.1-7.7c-3.1-8.8-7.8-16.8-12.9-24.6c1.8,1.7,3.5,3.5,5,5.4
		c0.1-12.2-2.5-24.3-7.7-35.4c-0.1-0.3-0.4-0.5-0.7-0.6c-0.3-0.1-0.6-0.1-0.9,0c-3,1.4-5.9,3-8.7,4.7c-3.4,2.2-6.7,4.6-9.8,7.3
		c1.4,0.8,2.7,1.7,4,2.6c-0.3-0.1-0.5-0.2-0.8-0.2l-0.3-0.1l0.3,0.1c-5.4-1.4-10.9-2.3-16.5-2.6h-0.3h-0.9H104
		c-1.1-0.1-2.3-0.1-3.4-0.1h-1.1H96h-0.9h-0.2h-0.9h-1l-2,0.1H90l-0.6,0h-0.6H88L86.7,27h-0.3c-5.7,0.5-11.4,1.3-17,2.4l0.2-0.1
		h-0.2l-0.6,0.1c1.3-1,2.7-1.9,4.1-2.7C67.5,22,61.3,18,54.6,14.9c-0.3-0.1-0.6-0.1-0.9,0c-0.3,0.1-0.5,0.3-0.7,0.6
		C48,26.2,45.4,38,45.4,50c1.3-1.5,2.8-2.9,4.3-4.3c-1.5,2.1-2.9,4.2-4.3,6.3c-0.2,0.2-0.3,0.5-0.5,0.8c-4.7,7.3-8.1,15.5-9.9,24
		c0,0.1,0,0.2,0,0.3c6.6,5.3,14.5,9,22.9,10.6c2.4,0.5,4.9,0.7,7.4,0.7c5.2,0.1,10.4-1.3,14.7-4.1H80c10.1-3.5,21.1-3.7,31.4-0.4
		h0.1c3.7,2.4,8.5,4.1,14.7,4.8c0.8,0.1,1.5,0.1,2.3,0.1C138,88.6,148.7,83.1,156.5,77.9C156.6,78,156.6,78,156.5,77.9z M52.6,37.8
		c-0.3,0.2-0.6,0.3-0.9,0.3c-0.3,0-0.5-0.1-0.8-0.2c-0.3-0.1-0.5-0.3-0.7-0.6s-0.3-0.6-0.3-0.9c0-4.5,0.5-9,1.5-13.4
		c0.4-1.4,0.9-2.6,1.7-3.8c0.2-0.3,0.5-0.6,0.8-0.8c0.3-0.2,0.7-0.4,1-0.4c0.8-0.2,1.6,0,2.2,0.4c1.5,1,3.4,2.4,5.2,3.8
		c1.8,1.4,3.5,2.7,4.7,3.7c0.2,0.1,0.3,0.3,0.4,0.5c0.1,0.2,0.1,0.4,0.1,0.7c0,0.2-0.1,0.5-0.2,0.7c-0.1,0.2-0.3,0.4-0.5,0.5
		C64,30.2,56.6,35.2,52.6,37.8z M61.5,56.7c0.2-2.4,3.7-4.1,7.8-3.8c4.2,0.3,7.4,2.4,7.3,4.8c-0.1,0.6-0.3,1.2-0.7,1.7
		c-0.4,0.5-0.9,0.9-1.4,1.1c-1.5,0.8-3.2,1.1-4.8,1.1h-0.9C64.6,61.3,61.3,59.1,61.5,56.7z M79.6,74.2c-0.1,2.4-0.9,4.8-2.4,6.7
		c-0.5,0.8-1.2,1.4-2.1,1.8c-0.8,0.4-1.7,0.7-2.7,0.7h-0.3c-1-0.1-1.9-0.4-2.7-1c-0.8-0.5-1.5-1.3-2-2.1c-1.2-2.1-1.8-4.5-1.6-6.9
		c0.3-5.3,3.6-9.4,7.3-9.3C77,64.4,79.9,68.9,79.6,74.2z M122.8,80.4c-0.5,0.9-1.1,1.6-2,2.1c-0.8,0.5-1.8,0.9-2.7,1h-0.3
		c-3.7,0-6.8-4.1-7.1-9.3c0-0.3,0-0.5,0-0.7c0-5,2.7-9.1,6.3-9.3c1,0,1.9,0.2,2.8,0.7c0.9,0.4,1.6,1.1,2.2,1.9
		c1.4,2,2.2,4.3,2.4,6.7C124.5,75.9,123.9,78.2,122.8,80.4L122.8,80.4z M126.8,59.9c-1.6,1-3.4,1.5-5.2,1.6h-0.9
		c-1.6,0-3.1-0.3-4.5-0.9c-1.5-0.7-2.4-1.8-2.4-2.9c-0.1-1.2,0.6-2.3,2-3.2c1.6-1,3.4-1.5,5.2-1.6c4.2-0.3,7.7,1.4,7.8,3.8
		C128.9,57.9,128.2,59,126.8,59.9z M140.6,38.1c-0.3,0-0.7-0.1-0.9-0.3c-4-2.6-11.4-7.6-14.4-9.6c-0.2-0.1-0.4-0.3-0.5-0.5
		c-0.1-0.2-0.2-0.4-0.2-0.7c0-0.2,0-0.5,0.1-0.7c0.1-0.2,0.2-0.4,0.4-0.5c2.4-1.9,6.8-5.4,9.9-7.5c0.3-0.2,0.7-0.4,1.1-0.4
		c0.4-0.1,0.8-0.1,1.1,0c0.4,0.1,0.7,0.2,1,0.4c0.3,0.2,0.6,0.5,0.8,0.8c0.8,1.2,1.3,2.5,1.7,3.8c1,4.4,1.5,8.9,1.5,13.4
		c0,0.3-0.1,0.6-0.3,0.9c-0.2,0.3-0.4,0.5-0.7,0.6C141.1,38,140.8,38.1,140.6,38.1z"/>
	<path d="M73.3,64.3c-3.8-0.2-7.1,4-7.3,9.3c-0.2,2.4,0.4,4.8,1.6,6.9c0.5,0.9,1.1,1.6,2,2.1c0.8,0.5,1.8,0.9,2.7,1h0.3
		c0.9,0,1.8-0.3,2.7-0.7c0.8-0.4,1.5-1.1,2.1-1.8c1.4-1.9,2.3-4.3,2.4-6.7C79.9,68.9,77,64.5,73.3,64.3z M76.6,72.6
		c0,0.8-0.3,1.6-0.7,2.2c-0.1,0.3-0.4,0.5-0.6,0.6c-0.2,0.2-0.5,0.2-0.8,0.3h-0.1c-1.1-0.1-1.9-1.6-1.8-3.4c0-0.8,0.3-1.6,0.7-2.2
		c0.1-0.3,0.4-0.5,0.6-0.6c0.3-0.2,0.6-0.2,0.9-0.2C75.9,69.3,76.7,70.9,76.6,72.6z"/>
	<path class="st3" d="M76.6,72.6c0,0.8-0.3,1.6-0.7,2.2c-0.1,0.3-0.4,0.5-0.6,0.6c-0.2,0.2-0.5,0.2-0.8,0.3h-0.1
		c-1.1-0.1-1.9-1.6-1.8-3.4c0-0.8,0.3-1.6,0.7-2.2c0.1-0.3,0.4-0.5,0.6-0.6c0.3-0.2,0.6-0.2,0.9-0.2C75.9,69.3,76.7,70.9,76.6,72.6z
		"/>
	<path class="st3" d="M76.5,57.8c-0.1,0.6-0.3,1.2-0.7,1.7c-0.4,0.5-0.9,0.9-1.4,1.1c-1.5,0.8-3.2,1.1-4.8,1.1h-0.9
		c-4.2-0.3-7.4-2.5-7.3-4.9c0.2-2.4,3.7-4.1,7.8-3.8C73.5,53.2,76.7,55.4,76.5,57.8z"/>
	<path class="st2" d="M67.6,27.1c0,0.2-0.1,0.5-0.2,0.7c-0.1,0.2-0.3,0.4-0.5,0.5c-3,2-10.4,7-14.4,9.6c-0.3,0.2-0.6,0.3-0.9,0.3
		c-0.3,0-0.6-0.1-0.8-0.2c-0.3-0.1-0.5-0.3-0.7-0.6c-0.2-0.3-0.3-0.6-0.3-0.9c0-4.5,0.5-9,1.5-13.4c0.3-1.4,0.9-2.6,1.7-3.8
		c0.2-0.3,0.5-0.6,0.8-0.8c0.3-0.2,0.7-0.4,1-0.4c0.4-0.1,0.8-0.1,1.1,0c0.4,0.1,0.7,0.2,1.1,0.4c1.5,1,3.4,2.4,5.2,3.8
		c1.8,1.4,3.5,2.7,4.7,3.7c0.2,0.1,0.3,0.3,0.4,0.5C67.6,26.6,67.7,26.8,67.6,27.1z"/>
	<path class="st3" d="M156.8,79.3c0-0.2-0.1-0.3-0.1-0.5l-0.1-0.6c-7.9,5.1-18.6,10.6-28.1,10.6c-0.8,0-1.5,0-2.3-0.1
		c-6.3-0.6-11.1-2.4-14.8-4.8c-10.2-3.3-21.2-3.1-31.4,0.4c-4.4,2.9-9.6,4.3-14.8,4.2c-2.5,0-4.9-0.3-7.4-0.7
		c-8.4-1.6-16.2-5.2-22.9-10.6c-0.4,2.2-0.7,4.4-0.8,6.6c-0.1,1.2-0.1,2.4-0.1,3.6v0.9c0,1,0.1,2,0.2,3c0,0.3,0.1,0.6,0.1,0.9
		c0.1,0.9,0.2,1.7,0.4,2.5c0.1,0.3,0.1,0.6,0.2,0.9c2.2,4,6.7,11.2,13.7,16.1c10.4,7.3,32.3,10,47.9,10c16.1,0,37.9-3.5,46.5-10
		c5.6-4.2,10.2-9.6,13.7-15.7c0.1-0.3,0.1-0.6,0.2-0.9C157.8,89.9,157.8,84.6,156.8,79.3z"/>
	<path class="st3" d="M111.1,101.5c-1.1,1.5-2.6,2.5-4.3,2.9l-0.3,0.1c-1.2,2.1-4.5,6.9-10.7,6.6c-2.2-0.1-4.3-0.8-6.1-2
		c-1.8-1.2-3.3-2.8-4.2-4.8l-0.3-0.1c-1.4-0.3-2.7-1.1-3.6-2.2c-1-1.1-1.6-2.4-1.7-3.9V98c0-0.2,0-0.3,0-0.5c0-0.7,0-1.3,0.2-2
		c0.7,4.3,2.9,7.3,7.4,7.5c1.6,0.1,3.2-0.1,4.6-0.7c0.8-0.3,1.4-0.8,2-1.4c0.6-0.6,1-1.3,1.2-2.1v-0.1l0.1-4.3
		c-5.7-0.5-7.4-6.2-7.4-6.2s0.7-3.8,7.9-3.8c7.2,0,8.2,3.5,8.2,3.5s-1.5,5.9-7.2,6.4l-0.1,4.2c0.3,1,0.9,2,1.7,2.7
		c0.8,0.7,1.8,1.2,2.8,1.4c0.7,0.2,1.3,0.3,2,0.3c1.6,0.2,3.1-0.1,4.5-0.9c0.7-0.4,1.4-1,1.9-1.7c0.6-0.7,1.2-1.4,1.5-2.3
		c0.4-0.9,0.7-1.8,0.8-2.8h0.1c0,0.1,0,0.3,0.1,0.4c0.1,0.2,0,0.5,0.1,0.7C112.3,98.3,111.9,100,111.1,101.5z"/>
	<path d="M103.9,104.7c-0.5,0-1,0-1.6-0.1l-0.8-0.1c-0.5-0.1-1-0.2-1.5-0.4c-1.7-0.6-3.1-1.7-4.1-3.2c-0.2,0.4-0.4,0.7-0.7,1
		c-2,2.3-5.2,2.9-8.1,2.7c-0.6,0-1.2-0.1-1.7-0.3c1,1.9,2.4,3.6,4.2,4.8c1.8,1.2,3.9,1.9,6.1,2c6.2,0.3,9.5-4.4,10.7-6.6
		C105.6,104.7,104.8,104.8,103.9,104.7z M102.4,107.1c-1.7,1.6-4,2.5-6.4,2.5c-2.4,0-4.7-0.9-6.4-2.5l-0.1-0.1V107
		c0.6-1.2,1.5-2.1,2.6-2.8c1.1-0.7,2.4-1,3.7-1h0.1c1.3,0,2.6,0.3,3.7,0.9c1.1,0.6,2.1,1.6,2.7,2.7v0.1L102.4,107.1z"/>
	<path class="st6" d="M102.4,107c-0.6-1.1-1.6-2.1-2.7-2.7c-1.1-0.6-2.4-1-3.7-0.9h-0.1c-1.3,0-2.6,0.3-3.7,1
		c-1.1,0.7-2,1.6-2.6,2.8v0.1l0.1,0.1c1.8,1.6,4.1,2.5,6.4,2.5c2.4,0,4.6-0.9,6.4-2.5l0.1-0.1L102.4,107z M101,107.9
		c-1.5,1-3.2,1.5-5,1.5c-1.8,0-3.5-0.5-5-1.4c-0.1,0-0.2-0.1-0.2-0.2c0.1-0.6,0.7-3.3,2.8-3.3c0.5,0,1.1,0.1,1.5,0.4
		c0.4,0.3,0.8,0.8,0.9,1.3c0.2-0.5,0.5-1,0.9-1.3c0.4-0.3,1-0.5,1.5-0.5c0.8,0.1,1.6,0.4,2.1,1.1c0.5,0.6,0.8,1.4,0.8,2.2L101,107.9
		z"/>
	<path class="st7" d="M101.3,107.7l-0.2,0.2c-1.5,1-3.2,1.5-5,1.5c-1.8,0-3.5-0.5-5-1.4c-0.1,0-0.2-0.1-0.2-0.2
		c0.1-0.6,0.7-3.3,2.8-3.3c0.5,0,1.1,0.1,1.5,0.4c0.4,0.3,0.8,0.8,0.9,1.3c0.2-0.5,0.5-1,0.9-1.3c0.4-0.3,1-0.5,1.5-0.5
		c0.8,0.1,1.6,0.4,2.1,1.1C101,106.1,101.3,106.9,101.3,107.7z"/>
	<path d="M111.1,101.5c-1.1,1.4-2.6,2.5-4.3,2.9c-0.1,0-0.2,0.1-0.3,0.1c-0.8,0.2-1.6,0.3-2.5,0.3c-0.5,0-1,0-1.6-0.1l-0.8-0.1
		c-0.5-0.1-1-0.2-1.5-0.4c-1.7-0.6-3.1-1.7-4.1-3.2c-0.2,0.4-0.4,0.7-0.7,1c-2,2.3-5.2,2.9-8.1,2.7c-0.6,0-1.2-0.1-1.7-0.3l-0.3-0.1
		c-1.7-0.4-3.1-1.4-4.2-2.8c-0.6-0.9-1-1.8-1.2-2.8c-0.2-1-0.2-2.1,0.1-3.1c0.7,4.3,2.9,7.3,7.4,7.5c1.6,0.1,3.2-0.1,4.6-0.7
		c0.8-0.3,1.4-0.8,2-1.4c0.6-0.6,1-1.3,1.2-2.1v-0.1l0.1-4.3c-5.7-0.5-7.4-6.2-7.4-6.2s0.7-3.8,7.9-3.8c7.2,0,8.2,3.5,8.2,3.5
		s-1.5,5.9-7.2,6.4l-0.1,4.3c0.3,1,0.9,2,1.7,2.7c0.8,0.7,1.8,1.2,2.8,1.4c0.7,0.2,1.3,0.3,2,0.3c1.6,0.2,3.1-0.1,4.5-0.9
		c0.7-0.4,1.4-1,1.9-1.7c0.6-0.7,1.2-1.4,1.5-2.3c0.4-0.9,0.7-1.8,0.8-2.8h0.1C112.4,97.5,112.1,99.6,111.1,101.5z"/>
	<path class="st2" d="M122,29.5c-5.4-1.4-10.9-2.3-16.5-2.6h-0.3c-1.5-0.1-3-0.2-4.5-0.2h-1.1H96h-0.9h-0.2h-0.9c-0.3,0-0.7,0-1,0
		c-1,0-2,0.1-3,0.2l-0.6,0h-0.6H88L86.7,27h-0.3c-5.7,0.5-11.4,1.3-16.9,2.4l0.2-0.1c8.7-4,18.3-6,27.9-5.8
		c8.3,0.3,16.5,2.2,24.1,5.7L122,29.5z"/>
	<path d="M124.4,73.5c-0.1-2.4-0.9-4.7-2.4-6.7c-0.6-0.8-1.3-1.5-2.2-1.9c-0.9-0.4-1.8-0.7-2.8-0.7c-3.6,0.2-6.3,4.3-6.3,9.2
		c0,0.2,0,0.5,0,0.7c0.3,5.2,3.4,9.3,7.1,9.3h0.3c1-0.1,1.9-0.4,2.7-1c0.8-0.5,1.5-1.3,2-2.1C124,78.3,124.5,75.9,124.4,73.5z
		 M115.9,75.7L115.9,75.7c-1.2,0-2.1-1.4-2.2-3.1c0-0.1,0-0.3,0-0.4c0-1.6,0.8-2.9,1.8-3c1-0.1,2.1,1.3,2.2,3.1
		C117.8,74.1,117,75.7,115.9,75.7z"/>
	<path class="st3" d="M115.9,75.7L115.9,75.7c-1.2,0-2.1-1.4-2.2-3.1c0-0.1,0-0.3,0-0.4c0-1.6,0.8-2.9,1.8-3c1-0.1,2.1,1.3,2.2,3.1
		C117.8,74.1,117,75.7,115.9,75.7z"/>
	<path class="st3" d="M126.8,60c-1.6,1-3.4,1.5-5.2,1.6h-0.9c-1.6,0-3.1-0.3-4.5-0.9c-1.5-0.7-2.4-1.8-2.4-3c0-0.7,0.2-1.3,0.6-1.9
		c0.4-0.6,0.9-1,1.5-1.3c1.6-1,3.4-1.5,5.2-1.6c4.2-0.3,7.7,1.4,7.8,3.9C128.9,57.9,128.2,59.1,126.8,60z"/>
	<path class="st2" d="M142.3,36.5c0,0.4-0.2,0.9-0.5,1.2c-0.3,0.3-0.7,0.5-1.2,0.5c-0.3,0-0.7-0.1-0.9-0.3c-4-2.6-11.4-7.6-14.4-9.6
		c-0.2-0.1-0.4-0.3-0.5-0.5c-0.1-0.2-0.2-0.4-0.2-0.7c0-0.2,0-0.5,0.1-0.7c0.1-0.2,0.2-0.4,0.4-0.5c2.4-1.9,6.8-5.4,9.9-7.5
		c0.3-0.2,0.7-0.4,1.1-0.4c0.4-0.1,0.8-0.1,1.1,0c0.4,0.1,0.7,0.2,1,0.4c0.3,0.2,0.6,0.5,0.8,0.8c0.8,1.2,1.3,2.5,1.7,3.8
		C141.7,27.4,142.2,31.9,142.3,36.5z"/>
	<path d="M97.2,141.8c-1.8,0-3.5-0.5-5-1.5c-1.5-1-2.6-2.4-3.3-4c-0.7-1.6-0.9-3.5-0.5-5.2c0.3-1.7,1.2-3.4,2.5-4.6
		c1.3-1.3,2.9-2.1,4.6-2.5c1.8-0.3,3.6-0.2,5.2,0.5c1.7,0.7,3.1,1.8,4.1,3.3c1,1.5,1.5,3.2,1.5,5c0,2.4-1,4.7-2.6,6.4
		C101.9,140.9,99.6,141.8,97.2,141.8z"/>
	<path class="st1" d="M97.2,125.9c-1.4,0-2.7,0.4-3.8,1.2c-1.1,0.8-2,1.8-2.5,3.1c-0.5,1.3-0.7,2.6-0.4,4c0.3,1.3,0.9,2.6,1.9,3.5
		c1,1,2.2,1.6,3.5,1.9c1.3,0.3,2.7,0.1,4-0.4c1.3-0.5,2.3-1.4,3.1-2.5c0.8-1.1,1.2-2.5,1.2-3.8c0-1.8-0.7-3.6-2-4.9
		C100.8,126.7,99,125.9,97.2,125.9z"/>
</g>
</svg>
